<svg xmlns="http://www.w3.org/2000/svg" version="1.1" xmlns:xlink="http://www.w3.org/1999/xlink" xmlns:svgjs="http://svgjs.dev/svgjs" width="180" height="180"><svg id="SvgjsSvg1057" data-name="Layer 1" xmlns="http://www.w3.org/2000/svg" viewBox="0 0 180 180"><defs><style>.cls-1{fill:#2a51a3;}.cls-1,.cls-2{fill-rule:evenodd;}.cls-2{fill:#fff;}.cls-3{fill:#fdb515;}</style></defs><title>santipatra</title><path class="cls-1" d="M15.4,37.6l13.9,14,24.1,24a34.9,34.9,0,0,1,6.5-9,37.1,37.1,0,0,1,9-6.6l-24-24A66.3,66.3,0,0,1,149.5,84.4c3.9-4.3,11.4-11.4,15.9-15.9l1.3-1.2.7-.8c0-.2.1-.4.1-.6a86.3,86.3,0,0,0-22-37.5,87.4,87.4,0,0,0-123.7-.5,75.6,75.6,0,0,0-7.1,7.9h0l-.5.6,1.2,1.2ZM121.8,144.1a66.3,66.3,0,0,1-85.5-7.4,65.5,65.5,0,0,1-8.6-10.6h0l-1.5,1.3c-2.2,2.2-13.6,13.1-13.7,13.9a84.7,84.7,0,0,0,8.7,10.3,87.5,87.5,0,0,0,123.8.5,69.4,69.4,0,0,0,7.2-8.1h0l.3-.4-1.7-1.7-13.4-13.4-24.2-24.2a37.1,37.1,0,0,1-6.6,9,33.3,33.3,0,0,1-9,6.5Z"></path><path class="cls-2" d="M59.2,65.9a34.1,34.1,0,1,1,0,48.2A34,34,0,0,1,59.2,65.9Z"></path><circle class="cls-3" cx="83.4" cy="90" r="23.3"></circle></svg><style>@media (prefers-color-scheme: light) { :root { filter: none; } }
@media (prefers-color-scheme: dark) { :root { filter: none; } }
</style></svg>