<?xml version="1.0" encoding="UTF-8"?>
<!DOCTYPE svg PUBLIC "-//W3C//DTD SVG 1.1//EN" "http://www.w3.org/Graphics/SVG/1.1/DTD/svg11.dtd">
<!-- Creator: CorelDRAW -->
<svg xmlns="http://www.w3.org/2000/svg" xml:space="preserve" width="714px" height="704px" version="1.1" style="shape-rendering:geometricPrecision; text-rendering:geometricPrecision; image-rendering:optimizeQuality; fill-rule:evenodd; clip-rule:evenodd"
viewBox="0 0 1370.18 1351.98"
 xmlns:xlink="http://www.w3.org/1999/xlink"
 xmlns:xodm="http://www.corel.com/coreldraw/odm/2003">
 <defs>
  <style type="text/css">
   <![CDATA[
    .fil0 {fill:#FA7516;fill-rule:nonzero}
   ]]>
  </style>
 </defs>
 <g id="Layer_x0020_1">
  <metadata id="CorelCorpID_0Corel-Layer"/>
  <g id="_3.svg">
   <path class="fil0" d="M1363.12 517.33l-132.16 -132.15c-1.84,-1.82 -3.96,-3.35 -6.25,-4.57l-307.36 -153.79c-16.86,-302.31 -447.63,-302.57 -464.54,0.1l-307.18 153.7c-2.31,1.27 -4.48,2.81 -6.45,4.56l-132.13 132.15c-4.52,4.6 -7.05,10.8 -7.05,17.25 0,9.25 5.19,17.72 13.41,21.94l118.6 59.31 0 447.39c0,-0.01 0,0 0,0 0,9.27 5.25,17.75 13.53,21.89l528.6 264.29c3.41,1.69 7.15,2.58 10.95,2.58 3.8,0 7.54,-0.89 10.94,-2.58l528.59 -264.29c8.27,-4.14 13.52,-12.62 13.52,-21.89 0,0 0,-0.01 0,-0.01l0 -447.38 118.63 -59.32c8.22,-4.21 13.41,-12.68 13.41,-21.93 0,-6.45 -2.53,-12.65 -7.06,-17.25zm-678.04 -469.69c101.31,0.1 183.45,82.24 183.54,183.54 -8.61,242.91 -358.51,242.85 -367.08,0 0.1,-101.3 82.24,-183.44 183.54,-183.54zm-619.41 480.28l95.66 -95.67 482.46 241.22 -95.69 95.68 -482.43 -241.23zm594.94 760l-479.66 -239.82 0 -407.8 361.03 180.52c3.4,1.67 7.14,2.55 10.93,2.55 6.5,0 12.73,-2.58 17.33,-7.15l90.38 -90.37 -0.01 562.07zm24.57 -648.48l-473.9 -236.94 246.38 -123.28c55.03,244.48 400.02,244.24 454.88,-0.08l246.52 123.35 -473.88 236.95zm504.02 408.65l-479.64 239.82 0 -562.06 90.37 90.37c4.58,4.58 10.81,7.16 17.3,7.16 3.79,0 7.55,-0.89 10.94,-2.58l361.03 -180.51 0 407.8zm-367.15 -278.94l-95.61 -95.62 482.45 -241.22 95.61 95.61 -482.45 241.23z"/>
   <path class="fil0" d="M584.48 255.66l201.19 0c13.33,-0.27 24,-11.15 24,-24.48 0,-13.34 -10.67,-24.21 -24,-24.47l-201.19 0c-13.33,0.26 -24,11.13 -24,24.47 0,13.33 10.67,24.21 24,24.47l0 0.01z"/>
  </g>
 </g>
</svg>
