<?xml version="1.0" encoding="UTF-8"?>
<!DOCTYPE svg PUBLIC "-//W3C//DTD SVG 1.1//EN" "http://www.w3.org/Graphics/SVG/1.1/DTD/svg11.dtd">
<!-- Creator: CorelDRAW -->
<svg xmlns="http://www.w3.org/2000/svg" xml:space="preserve" width="536px" height="740px" version="1.1" style="shape-rendering:geometricPrecision; text-rendering:geometricPrecision; image-rendering:optimizeQuality; fill-rule:evenodd; clip-rule:evenodd"
viewBox="0 0 108.58 149.82"
 xmlns:xlink="http://www.w3.org/1999/xlink"
 xmlns:xodm="http://www.corel.com/coreldraw/odm/2003">
 <defs>
  <style type="text/css">
   <![CDATA[
    .fil1 {fill:#F9FAFA;fill-rule:nonzero}
    .fil0 {fill:#FA7516;fill-rule:nonzero}
   ]]>
  </style>
 </defs>
 <g id="Layer_x0020_1">
  <metadata id="CorelCorpID_0Corel-Layer"/>
  <g id="_1824955015232">
   <path class="fil0" d="M0.08 74.82c0,-23.23 -0.01,-46.46 0,-69.7 0,-5.08 0.01,-5.08 5.23,-5.08 24.93,-0.01 49.85,-0.02 74.78,-0.04 1.57,0 2.87,0.08 4.18,1.43 6.98,7.21 14.09,14.3 21.27,21.31 2.03,1.98 3.05,3.99 3.04,6.93 -0.12,37.64 -0.11,75.27 -0.15,112.91 -0.01,7.12 -0.06,7.13 -7.03,7.13 -32.31,0 -64.61,-0.1 -96.92,0.11 -3.87,0.03 -4.49,-1.26 -4.48,-4.57 0.09,-23.48 0.05,-46.95 0.05,-70.43 0.01,0 0.02,0 0.03,0z"/>
   <path class="fil1" d="M10.09 74.86c0,-20.57 0.04,-41.15 -0.05,-61.73 -0.01,-2.29 0.4,-3.06 2.92,-3.05 19.6,0.11 39.21,0.07 58.81,-0.01 2.6,-0.01 3.76,0.38 3.58,3.48 -0.36,5.91 -0.09,11.86 -0.2,17.78 -0.03,1.84 0.42,2.53 2.41,2.49 6.17,-0.11 12.34,0.08 18.51,-0.01 1.78,-0.03 2.46,0.2 2.45,2.26 -0.09,33.77 -0.1,67.54 -0.07,101.31 0,1.87 -0.49,2.59 -2.42,2.48 -1.8,-0.11 -3.62,0.2 -5.43,0.2 -25.78,0 -51.56,-0.06 -77.34,0.04 -2.84,0.01 -3.37,-0.88 -3.35,-3.5 0.1,-20.58 0.06,-41.16 0.06,-61.74 0.04,0 0.08,0 0.12,0z"/>
   <path class="fil0" d="M54.2 86.51c-10.88,0 -21.76,-0.07 -32.63,0.06 -2.24,0.02 -2.79,-0.52 -2.79,-2.76 0,-7.22 -0.11,-7.21 7.07,-7.19 19.82,0.06 39.64,0.1 59.46,0.2 1.48,0.01 3.91,-0.65 4.24,0.9 0.56,2.63 0.26,5.52 -0.09,8.24 -0.12,0.94 -1.71,0.49 -2.62,0.49 -10.88,0.03 -21.76,0.02 -32.64,0.02 0,0.01 0,0.02 0,0.04z"/>
   <path class="fil0" d="M54.26 97.35c10.77,0 21.54,0.07 32.3,-0.06 2.48,-0.03 3.3,0.53 3.22,3.15 -0.2,6.46 -0.05,6.46 -6.51,6.48 -20.33,0.05 -40.66,0.04 -60.99,0.2 -2.74,0.02 -3.65,-0.6 -3.56,-3.48 0.18,-6.4 0.02,-6.39 6.5,-6.38 9.68,0.02 19.36,0.01 29.04,0.01 0,0.03 0,0.05 0,0.08z"/>
  </g>
 </g>
</svg>
